<mxfile host="app.diagrams.net" agent="Mozilla/5.0 (Macintosh; Intel Mac OS X 10_15_7) AppleWebKit/537.36 (KHTML, like Gecko) Chrome/131.0.0.0 Safari/537.36" version="24.7.7">
  <diagram name="Page-1" id="tlTpZx2c4kacrAavi_ZJ">
    <mxGraphModel dx="678" dy="797" grid="0" gridSize="10" guides="1" tooltips="1" connect="1" arrows="1" fold="1" page="0" pageScale="1" pageWidth="850" pageHeight="1100" math="0" shadow="0">
      <root>
        <mxCell id="0" />
        <mxCell id="1" parent="0" />
        <mxCell id="4Vv4FzAK36hIdMXPsBs1-17" style="edgeStyle=none;curved=1;rounded=0;orthogonalLoop=1;jettySize=auto;html=1;fontSize=12;startSize=8;endSize=8;" edge="1" parent="1" source="4Vv4FzAK36hIdMXPsBs1-1" target="4Vv4FzAK36hIdMXPsBs1-7">
          <mxGeometry relative="1" as="geometry" />
        </mxCell>
        <mxCell id="4Vv4FzAK36hIdMXPsBs1-1" value="HomeScreen" style="rounded=1;whiteSpace=wrap;html=1;" vertex="1" parent="1">
          <mxGeometry x="-379" y="-20" width="120" height="60" as="geometry" />
        </mxCell>
        <mxCell id="4Vv4FzAK36hIdMXPsBs1-18" style="edgeStyle=none;curved=1;rounded=0;orthogonalLoop=1;jettySize=auto;html=1;exitX=0.5;exitY=1;exitDx=0;exitDy=0;fontSize=12;startSize=8;endSize=8;" edge="1" parent="1" source="4Vv4FzAK36hIdMXPsBs1-3" target="4Vv4FzAK36hIdMXPsBs1-8">
          <mxGeometry relative="1" as="geometry" />
        </mxCell>
        <mxCell id="4Vv4FzAK36hIdMXPsBs1-3" value="EggListScreen&lt;div&gt;(remote/local)&lt;/div&gt;" style="rounded=1;whiteSpace=wrap;html=1;" vertex="1" parent="1">
          <mxGeometry x="-194" y="-20" width="120" height="60" as="geometry" />
        </mxCell>
        <mxCell id="4Vv4FzAK36hIdMXPsBs1-7" value="HomeViewModel" style="rounded=1;whiteSpace=wrap;html=1;" vertex="1" parent="1">
          <mxGeometry x="-379" y="135" width="120" height="60" as="geometry" />
        </mxCell>
        <mxCell id="4Vv4FzAK36hIdMXPsBs1-8" value="EggsListViewModel" style="rounded=1;whiteSpace=wrap;html=1;" vertex="1" parent="1">
          <mxGeometry x="-194" y="135" width="120" height="60" as="geometry" />
        </mxCell>
        <mxCell id="4Vv4FzAK36hIdMXPsBs1-9" value="EggDetailsViewModel" style="rounded=1;whiteSpace=wrap;html=1;" vertex="1" parent="1">
          <mxGeometry x="-16" y="135" width="134" height="60" as="geometry" />
        </mxCell>
        <mxCell id="4Vv4FzAK36hIdMXPsBs1-10" value="RecipeMatchingMinigameViewModel" style="rounded=1;whiteSpace=wrap;html=1;" vertex="1" parent="1">
          <mxGeometry x="176" y="135" width="213" height="60" as="geometry" />
        </mxCell>
        <mxCell id="4Vv4FzAK36hIdMXPsBs1-11" value="&lt;div&gt;MemoryMatchingMinigameViewModel&lt;/div&gt;" style="rounded=1;whiteSpace=wrap;html=1;" vertex="1" parent="1">
          <mxGeometry x="447" y="135" width="218" height="60" as="geometry" />
        </mxCell>
        <mxCell id="4Vv4FzAK36hIdMXPsBs1-19" style="edgeStyle=none;curved=1;rounded=0;orthogonalLoop=1;jettySize=auto;html=1;exitX=0.5;exitY=1;exitDx=0;exitDy=0;fontSize=12;startSize=8;endSize=8;" edge="1" parent="1" source="4Vv4FzAK36hIdMXPsBs1-13" target="4Vv4FzAK36hIdMXPsBs1-9">
          <mxGeometry relative="1" as="geometry" />
        </mxCell>
        <mxCell id="4Vv4FzAK36hIdMXPsBs1-13" value="EggDetailsScreen&lt;div&gt;(remote/local)&lt;/div&gt;" style="rounded=1;whiteSpace=wrap;html=1;" vertex="1" parent="1">
          <mxGeometry x="-16" y="-20" width="134" height="60" as="geometry" />
        </mxCell>
        <mxCell id="4Vv4FzAK36hIdMXPsBs1-20" style="edgeStyle=none;curved=1;rounded=0;orthogonalLoop=1;jettySize=auto;html=1;exitX=0.5;exitY=1;exitDx=0;exitDy=0;fontSize=12;startSize=8;endSize=8;" edge="1" parent="1" source="4Vv4FzAK36hIdMXPsBs1-15" target="4Vv4FzAK36hIdMXPsBs1-10">
          <mxGeometry relative="1" as="geometry" />
        </mxCell>
        <mxCell id="4Vv4FzAK36hIdMXPsBs1-15" value="RecipeMatchingMinigameScreen" style="rounded=1;whiteSpace=wrap;html=1;" vertex="1" parent="1">
          <mxGeometry x="176" y="-20" width="213" height="60" as="geometry" />
        </mxCell>
        <mxCell id="4Vv4FzAK36hIdMXPsBs1-21" style="edgeStyle=none;curved=1;rounded=0;orthogonalLoop=1;jettySize=auto;html=1;entryX=0.5;entryY=0;entryDx=0;entryDy=0;fontSize=12;startSize=8;endSize=8;" edge="1" parent="1" source="4Vv4FzAK36hIdMXPsBs1-16" target="4Vv4FzAK36hIdMXPsBs1-11">
          <mxGeometry relative="1" as="geometry" />
        </mxCell>
        <mxCell id="4Vv4FzAK36hIdMXPsBs1-16" value="MemoryMatchingMinigameScreen" style="rounded=1;whiteSpace=wrap;html=1;" vertex="1" parent="1">
          <mxGeometry x="447" y="-20" width="218" height="60" as="geometry" />
        </mxCell>
        <mxCell id="4Vv4FzAK36hIdMXPsBs1-22" value="EggsRepository" style="rounded=1;whiteSpace=wrap;html=1;" vertex="1" parent="1">
          <mxGeometry x="106" y="301" width="120" height="60" as="geometry" />
        </mxCell>
        <mxCell id="4Vv4FzAK36hIdMXPsBs1-28" value="" style="endArrow=classic;html=1;rounded=0;fontSize=12;startSize=8;endSize=8;curved=1;entryX=0.5;entryY=0;entryDx=0;entryDy=0;" edge="1" parent="1" target="4Vv4FzAK36hIdMXPsBs1-22">
          <mxGeometry width="50" height="50" relative="1" as="geometry">
            <mxPoint x="167" y="240" as="sourcePoint" />
            <mxPoint x="186" y="102" as="targetPoint" />
          </mxGeometry>
        </mxCell>
        <mxCell id="4Vv4FzAK36hIdMXPsBs1-30" value="" style="endArrow=none;html=1;rounded=0;fontSize=12;startSize=8;endSize=8;curved=1;entryX=0.5;entryY=1;entryDx=0;entryDy=0;" edge="1" parent="1" target="4Vv4FzAK36hIdMXPsBs1-9">
          <mxGeometry width="50" height="50" relative="1" as="geometry">
            <mxPoint x="51" y="240" as="sourcePoint" />
            <mxPoint x="130" y="229" as="targetPoint" />
          </mxGeometry>
        </mxCell>
        <mxCell id="4Vv4FzAK36hIdMXPsBs1-31" value="" style="endArrow=none;html=1;rounded=0;fontSize=12;startSize=8;endSize=8;curved=1;entryX=0.5;entryY=1;entryDx=0;entryDy=0;" edge="1" parent="1">
          <mxGeometry width="50" height="50" relative="1" as="geometry">
            <mxPoint x="282.14" y="240" as="sourcePoint" />
            <mxPoint x="282.14" y="195" as="targetPoint" />
          </mxGeometry>
        </mxCell>
        <mxCell id="4Vv4FzAK36hIdMXPsBs1-32" value="" style="endArrow=none;html=1;rounded=0;fontSize=12;startSize=8;endSize=8;curved=1;entryX=0.5;entryY=1;entryDx=0;entryDy=0;" edge="1" parent="1">
          <mxGeometry width="50" height="50" relative="1" as="geometry">
            <mxPoint x="-134.36" y="240" as="sourcePoint" />
            <mxPoint x="-134.36" y="195" as="targetPoint" />
          </mxGeometry>
        </mxCell>
        <mxCell id="4Vv4FzAK36hIdMXPsBs1-33" value="" style="endArrow=none;html=1;rounded=0;fontSize=12;startSize=8;endSize=8;curved=1;entryX=0.5;entryY=1;entryDx=0;entryDy=0;" edge="1" parent="1">
          <mxGeometry width="50" height="50" relative="1" as="geometry">
            <mxPoint x="555.64" y="240" as="sourcePoint" />
            <mxPoint x="555.64" y="195" as="targetPoint" />
          </mxGeometry>
        </mxCell>
        <mxCell id="4Vv4FzAK36hIdMXPsBs1-34" value="" style="endArrow=none;html=1;rounded=0;fontSize=12;startSize=8;endSize=8;curved=1;" edge="1" parent="1">
          <mxGeometry width="50" height="50" relative="1" as="geometry">
            <mxPoint x="556" y="240" as="sourcePoint" />
            <mxPoint x="-134" y="240" as="targetPoint" />
          </mxGeometry>
        </mxCell>
        <mxCell id="4Vv4FzAK36hIdMXPsBs1-35" value="RemoteEggsApi" style="rounded=1;whiteSpace=wrap;html=1;" vertex="1" parent="1">
          <mxGeometry x="222.5" y="421" width="120" height="60" as="geometry" />
        </mxCell>
        <mxCell id="4Vv4FzAK36hIdMXPsBs1-36" value="LocalDatabase" style="rounded=1;whiteSpace=wrap;html=1;" vertex="1" parent="1">
          <mxGeometry x="-9" y="421" width="120" height="60" as="geometry" />
        </mxCell>
        <mxCell id="4Vv4FzAK36hIdMXPsBs1-39" value="" style="endArrow=classic;html=1;rounded=0;fontSize=12;startSize=8;endSize=8;curved=1;entryX=0.5;entryY=0;entryDx=0;entryDy=0;" edge="1" parent="1">
          <mxGeometry width="50" height="50" relative="1" as="geometry">
            <mxPoint x="282.24" y="386" as="sourcePoint" />
            <mxPoint x="282.24" y="421" as="targetPoint" />
          </mxGeometry>
        </mxCell>
        <mxCell id="4Vv4FzAK36hIdMXPsBs1-40" value="" style="endArrow=none;html=1;rounded=0;fontSize=12;startSize=8;endSize=8;curved=1;entryX=0.5;entryY=1;entryDx=0;entryDy=0;" edge="1" parent="1" target="4Vv4FzAK36hIdMXPsBs1-22">
          <mxGeometry width="50" height="50" relative="1" as="geometry">
            <mxPoint x="166" y="386" as="sourcePoint" />
            <mxPoint x="178" y="394" as="targetPoint" />
          </mxGeometry>
        </mxCell>
        <mxCell id="4Vv4FzAK36hIdMXPsBs1-42" value="" style="endArrow=classic;html=1;rounded=0;fontSize=12;startSize=8;endSize=8;curved=1;entryX=0.5;entryY=0;entryDx=0;entryDy=0;" edge="1" parent="1">
          <mxGeometry width="50" height="50" relative="1" as="geometry">
            <mxPoint x="50.77000000000004" y="386" as="sourcePoint" />
            <mxPoint x="50.77000000000004" y="421" as="targetPoint" />
          </mxGeometry>
        </mxCell>
        <mxCell id="4Vv4FzAK36hIdMXPsBs1-43" value="" style="endArrow=none;html=1;rounded=0;fontSize=12;startSize=8;endSize=8;curved=1;" edge="1" parent="1">
          <mxGeometry width="50" height="50" relative="1" as="geometry">
            <mxPoint x="51" y="386" as="sourcePoint" />
            <mxPoint x="282" y="386" as="targetPoint" />
          </mxGeometry>
        </mxCell>
        <mxCell id="4Vv4FzAK36hIdMXPsBs1-44" value="RemoteEggsApi" style="ellipse;shape=cloud;whiteSpace=wrap;html=1;" vertex="1" parent="1">
          <mxGeometry x="211.5" y="541" width="142" height="80" as="geometry" />
        </mxCell>
        <mxCell id="4Vv4FzAK36hIdMXPsBs1-45" value="LocalDatabase" style="shape=cylinder3;whiteSpace=wrap;html=1;boundedLbl=1;backgroundOutline=1;size=15;" vertex="1" parent="1">
          <mxGeometry x="5" y="541" width="92" height="80" as="geometry" />
        </mxCell>
        <mxCell id="4Vv4FzAK36hIdMXPsBs1-46" style="edgeStyle=none;curved=1;rounded=0;orthogonalLoop=1;jettySize=auto;html=1;entryX=0.5;entryY=0;entryDx=0;entryDy=0;entryPerimeter=0;fontSize=12;startSize=8;endSize=8;" edge="1" parent="1" source="4Vv4FzAK36hIdMXPsBs1-36" target="4Vv4FzAK36hIdMXPsBs1-45">
          <mxGeometry relative="1" as="geometry" />
        </mxCell>
        <mxCell id="4Vv4FzAK36hIdMXPsBs1-47" style="edgeStyle=none;curved=1;rounded=0;orthogonalLoop=1;jettySize=auto;html=1;entryX=0.508;entryY=0.118;entryDx=0;entryDy=0;entryPerimeter=0;fontSize=12;startSize=8;endSize=8;" edge="1" parent="1" source="4Vv4FzAK36hIdMXPsBs1-35" target="4Vv4FzAK36hIdMXPsBs1-44">
          <mxGeometry relative="1" as="geometry" />
        </mxCell>
      </root>
    </mxGraphModel>
  </diagram>
</mxfile>
